<svg width="100" height="100" viewBox="0 0 100 100" fill="none" xmlns="http://www.w3.org/2000/svg">
<g opacity="0.06">
<path d="M92.6317 44.4142C96.0804 44.4142 97.5201 39.9834 94.7188 37.941L52.096 6.93654C51.4873 6.49057 50.7524 6.25015 49.9978 6.25015C49.2432 6.25015 48.5083 6.49057 47.8996 6.93654L5.2768 37.941C2.47546 39.9723 3.9152 44.4142 7.37502 44.4142H14.2835V86.1553H6.24779C5.75671 86.1553 5.35493 86.5571 5.35493 87.0482V92.8517C5.35493 93.3428 5.75671 93.7446 6.24779 93.7446H93.7478C94.2389 93.7446 94.6406 93.3428 94.6406 92.8517V87.0482C94.6406 86.5571 94.2389 86.1553 93.7478 86.1553H85.7121V44.4142H92.6317ZM49.9978 14.8048L80.2545 36.8138H19.7411L49.9978 14.8048ZM22.3192 44.4142H35.3773V86.1553H22.3192V44.4142ZM43.413 44.4142H56.471V86.1553H43.413V44.4142ZM77.6764 86.1553H64.5067V44.4142H77.6764V86.1553Z" fill="#096DD9"/>
</g>
</svg>
