<svg xmlns="http://www.w3.org/2000/svg" width="90" height="80" viewBox="0 0 90 80" fill="none">
  <path d="M45.1033 79.4919C69.737 79.4919 89.7066 75.7605 89.7066 71.1577C89.7066 66.5548 69.737 62.8235 45.1033 62.8235C20.4696 62.8235 0.5 66.5548 0.5 71.1577C0.5 75.7605 20.4696 79.4919 45.1033 79.4919Z" fill="#F5F5F7" fill-opacity="0.8"/>
  <path fill-rule="evenodd" clip-rule="evenodd" d="M80.7854 46.6737L65.0452 27.3019C64.29 26.3901 63.186 25.8381 62.0235 25.8381H28.1814C27.0196 25.8381 25.9156 26.3901 25.1604 27.3019L9.4209 46.6737V56.7941H80.786V46.6737H80.7854Z" fill="#AEB8C2"/>
  <path fill-rule="evenodd" clip-rule="evenodd" d="M22.7566 0.835449H67.4493C68.1473 0.835449 68.8166 1.1127 69.3102 1.60622C69.8037 2.09974 70.0809 2.76909 70.0809 3.46703V64.8775C70.0809 65.5755 69.8037 66.2448 69.3102 66.7383C68.8166 67.2319 68.1473 67.5091 67.4493 67.5091H22.7566C22.0586 67.5091 21.3893 67.2319 20.8958 66.7383C20.4023 66.2448 20.125 65.5755 20.125 64.8775V3.46703C20.125 2.76909 20.4023 2.09974 20.8958 1.60622C21.3893 1.1127 22.0586 0.835449 22.7566 0.835449V0.835449Z" fill="#F5F5F7"/>
  <path fill-rule="evenodd" clip-rule="evenodd" d="M28.5772 7.38354H61.6278C61.9768 7.38354 62.3115 7.52217 62.5582 7.76893C62.805 8.01569 62.9436 8.35037 62.9436 8.69933V25.1184C62.9436 25.4674 62.805 25.8021 62.5582 26.0488C62.3115 26.2956 61.9768 26.4342 61.6278 26.4342H28.5772C28.2282 26.4342 27.8935 26.2956 27.6468 26.0488C27.4 25.8021 27.2614 25.4674 27.2614 25.1184V8.69933C27.2614 8.35037 27.4 8.01569 27.6468 7.76893C27.8935 7.52217 28.2282 7.38354 28.5772 7.38354ZM28.7495 33.577H61.4555C61.8501 33.577 62.2287 33.7338 62.5077 34.0128C62.7868 34.2919 62.9436 34.6704 62.9436 35.0651C62.9436 35.4598 62.7868 35.8383 62.5077 36.1174C62.2287 36.3965 61.8501 36.5533 61.4555 36.5533H28.7495C28.3548 36.5533 27.9763 36.3965 27.6972 36.1174C27.4182 35.8383 27.2614 35.4598 27.2614 35.0651C27.2614 34.6704 27.4182 34.2919 27.6972 34.0128C27.9763 33.7338 28.3548 33.577 28.7495 33.577ZM28.7495 41.3158H61.4555C61.8502 41.3158 62.2288 41.4726 62.508 41.7518C62.7871 42.0309 62.9439 42.4095 62.9439 42.8043C62.9439 43.199 62.7871 43.5776 62.508 43.8568C62.2288 44.1359 61.8502 44.2928 61.4555 44.2928H28.7495C28.3548 44.2928 27.9762 44.1359 27.697 43.8568C27.4179 43.5776 27.261 43.199 27.261 42.8043C27.261 42.4095 27.4179 42.0309 27.697 41.7518C27.9762 41.4726 28.3548 41.3158 28.7495 41.3158ZM80.6397 69.9355C80.1298 71.9559 78.339 73.4618 76.2087 73.4618H13.9962C11.866 73.4618 10.0752 71.9553 9.56597 69.9355C9.46886 69.5505 9.4198 69.1549 9.41992 68.7579V46.6743H26.7344C28.6469 46.6743 30.1883 48.2849 30.1883 50.2401V50.2664C30.1883 52.221 31.7476 53.7993 33.6601 53.7993H56.5449C58.4574 53.7993 60.0166 52.2066 60.0166 50.2513V50.2434C60.0166 48.2881 61.5581 46.6737 63.4706 46.6737H80.7851V68.7585C80.7851 69.1645 80.7344 69.5585 80.6397 69.9355Z" fill="#DCE0E6"/>
</svg>