<svg width="100" height="66" viewBox="0 0 100 66" fill="none" xmlns="http://www.w3.org/2000/svg">
<g opacity="0.06">
<path d="M64.8068 33.5243C64.7242 33.4093 64.6152 33.3158 64.489 33.2518C64.3627 33.1877 64.2229 33.1548 64.0813 33.156H59.1483C58.4229 33.156 57.9987 33.9819 58.4229 34.5734L66.6595 45.9685C67.0166 46.4596 67.7421 46.4596 68.0992 45.9685L80.8447 28.3346C81.2688 27.7431 80.8447 26.9172 80.1193 26.9172H75.1751C74.8849 26.9172 74.6171 27.0511 74.4496 27.2855L67.3626 37.0846L64.8068 33.5243ZM69.6394 -7.01139V-12.3685C69.6394 -12.8596 69.2376 -13.2614 68.7465 -13.2614H25.8894C25.3983 -13.2614 24.9965 -12.8596 24.9965 -12.3685V-7.01139C24.9965 -6.52032 25.3983 -6.11853 25.8894 -6.11853H68.7465C69.2376 -6.11853 69.6394 -6.52032 69.6394 -7.01139ZM25.8894 2.81004C25.3983 2.81004 24.9965 3.21183 24.9965 3.7029V9.06004C24.9965 9.55111 25.3983 9.9529 25.8894 9.9529H46.4251C46.9162 9.9529 47.3179 9.55111 47.3179 9.06004V3.7029C47.3179 3.21183 46.9162 2.81004 46.4251 2.81004H25.8894ZM46.4251 53.9261H16.0679V-24.6453H78.5679V8.3904C78.5679 8.88147 78.9697 9.28326 79.4608 9.28326H85.7108C86.2019 9.28326 86.6037 8.88147 86.6037 8.3904V-29.1096C86.6037 -31.085 85.0077 -32.681 83.0322 -32.681H11.6037C9.62821 -32.681 8.03223 -31.085 8.03223 -29.1096V58.3904C8.03223 60.3659 9.62821 61.9618 11.6037 61.9618H46.4251C46.9162 61.9618 47.3179 61.56 47.3179 61.069V54.819C47.3179 54.3279 46.9162 53.9261 46.4251 53.9261ZM91.3581 18.1225L69.9296 10.6783C69.8291 10.6449 69.7398 10.6337 69.6394 10.6337C69.5389 10.6337 69.4385 10.6449 69.3492 10.6783L47.9206 18.1225C47.7456 18.182 47.5934 18.2946 47.4854 18.4446C47.3773 18.5947 47.3188 18.7747 47.3179 18.9596V46.9842C47.3179 47.2632 47.4407 47.5199 47.6639 47.6873L69.0925 64.4507C69.2487 64.5734 69.4496 64.6404 69.6394 64.6404C69.8291 64.6404 70.03 64.5734 70.1863 64.4507L91.6148 47.6873C91.8269 47.5199 91.9608 47.2632 91.9608 46.9842V18.9596C91.9608 18.5801 91.7153 18.2453 91.3581 18.1225ZM85.0412 44.0712L69.6394 56.1136L54.2376 44.0712V23.2341L69.6394 17.877L85.0412 23.2341V44.0712Z" fill="#096DD9"/>
</g>
</svg>
